<svg xmlns="http://www.w3.org/2000/svg" viewBox="0 0 1200 620" role="img" aria-labelledby="t"><title id="t">Network C Multi-tier Web Environment</title><defs><marker id="a" markerWidth="10" markerHeight="10" refX="8" refY="3" orient="auto"><path d="M0 0l9 3-9 3z" fill="#506777"/></marker></defs><rect width="1200" height="620" fill="#f5f8fa"/><g font-family="sans-serif"><g stroke-dasharray="8 6" stroke-width="3"><rect x="20" y="100" width="240" height="480" rx="18" fill="#d9eff2" stroke="#3b7e89"/><rect x="280" y="100" width="350" height="480" rx="18" fill="#fff0c9" stroke="#a87420"/><rect x="650" y="100" width="250" height="480" rx="18" fill="#dff0e3" stroke="#4f865b"/><rect x="920" y="100" width="260" height="480" rx="18" fill="#e8e2f4" stroke="#74629c"/></g><g font-size="16" font-weight="700"><text x="35" y="130">Client Net 10.10.10.0/24</text><text x="295" y="130">DMZ 10.10.20.0/24</text><text x="665" y="130">Application Net</text><text x="665" y="152">10.10.30.0/24</text><text x="935" y="130">DB Net 10.10.40.0/24</text></g><g stroke="#506777" stroke-width="4" fill="none" marker-end="url(#a)"><path d="M420 65v175"/><path d="M465 290h70"/><path d="M610 290h125"/><path d="M850 290h145"/><path d="M225 440l510-110"/></g><g font-size="14" text-anchor="middle"><g transform="translate(45 390)"><rect width="180" height="100" rx="12" fill="#fff" stroke="#3b7e89" stroke-width="3"/><text x="90" y="28" font-weight="700">AdminPC01</text><text x="90" y="54">Windows</text><text x="90" y="78">10.10.10.101</text></g><g transform="translate(335 240)"><rect width="130" height="100" rx="12" fill="#fff" stroke="#a87420" stroke-width="3"/><text x="65" y="28" font-weight="700">WAF01</text><text x="65" y="54">Linux / WAF</text><text x="65" y="78">10.10.20.101</text></g><g transform="translate(535 240)"><rect width="105" height="100" rx="12" fill="#fff" stroke="#a87420" stroke-width="3"/><text x="52" y="28" font-weight="700">Frontend01</text><text x="52" y="54">Linux</text><text x="52" y="78">10.10.20.102</text></g><g transform="translate(735 240)"><rect width="115" height="100" rx="12" fill="#fff" stroke="#4f865b" stroke-width="3"/><text x="57" y="28" font-weight="700">App01</text><text x="57" y="54">Linux</text><text x="57" y="78">10.10.30.101</text></g><g transform="translate(995 240)"><rect width="145" height="100" rx="12" fill="#fff" stroke="#74629c" stroke-width="3"/><text x="72" y="28" font-weight="700">DB01</text><text x="72" y="54">Linux</text><text x="72" y="78">10.10.40.101</text></g><path d="M340 20h160l30 40-30 40H340l-30-40z" fill="#d8eef1" stroke="#3b7e89"/><text x="420" y="66" font-weight="700">Internet</text></g></g></svg>
